<?xml version="1.0" standalone="no"?>
<!DOCTYPE svg PUBLIC "-//W3C//DTD SVG 20010904//EN"
 "http://www.w3.org/TR/2001/REC-SVG-20010904/DTD/svg10.dtd">
<svg version="1.0" xmlns="http://www.w3.org/2000/svg"
 width="400.000000pt" height="400.000000pt" viewBox="0 0 400.000000 400.000000"
 preserveAspectRatio="xMidYMid meet">
<metadata>
Created by potrace 1.14, written by Peter Selinger 2001-2017
</metadata>
<g transform="translate(0.000000,400.000000) scale(0.100000,-0.100000)"
fill="#000000" stroke="none">
<path d="M0 2000 l0 -2000 2000 0 2000 0 0 2000 0 2000 -2000 0 -2000 0 0
-2000z m2300 1511 c362 -87 611 -292 747 -613 68 -161 113 -397 113 -586 0
-102 -13 -133 -60 -149 -55 -19 -1629 -18 -1655 1 -15 11 -20 29 -23 82 -2 38
1 81 7 96 l10 28 553 2 553 3 -2 155 c-8 474 -157 746 -453 826 -100 27 -285
24 -370 -5 -199 -69 -329 -224 -404 -484 -42 -144 -57 -279 -60 -551 -7 -474
17 -780 75 -980 78 -268 250 -449 489 -513 52 -14 103 -18 255 -17 223 1 290
14 445 91 79 38 109 61 180 132 71 71 94 103 133 181 48 97 83 212 94 310 3
30 10 61 16 68 6 8 37 12 88 12 61 0 80 -3 87 -16 12 -21 -19 -194 -53 -298
-158 -484 -492 -687 -1129 -686 -395 1 -680 108 -897 338 -255 270 -379 660
-379 1191 0 373 69 632 234 881 183 274 463 451 811 515 122 22 481 14 595
-14z"/>
</g>
</svg>
